name tmp\angles_pectmin2.mot
datacolumns 15
datarows 47
range 0.750000 0.837121
endheader
time  THx THy THz SCy SCz SCx ACy ACz ACx GHy GHz GHyy ELx PSy
0.750000	0.000000	0.000000	0.000000	-37.928381	13.857941	20.199010	59.492722	-4.192268	-0.573879	-76.828405	14.921262	99.681135	0.000000	0.000000	
0.751894	0.000000	0.000000	0.000000	-32.422780	11.613875	13.244244	60.361748	-1.766411	-0.823329	12.247070	9.215645	6.397122	0.000000	0.000000	
0.753788	0.000000	0.000000	0.000000	-30.828454	11.521917	18.385498	64.200460	-3.035770	-0.073203	57.273164	30.810520	-41.797976	0.000000	0.000000	
0.755682	0.000000	0.000000	0.000000	-36.152914	14.462637	31.484295	67.834463	-5.304670	4.878557	62.325820	53.310994	-53.003871	0.000000	0.000000	
0.757576	0.000000	0.000000	0.000000	-31.843073	12.062007	21.676096	64.817136	-4.334704	0.226455	56.974617	34.079219	-41.294580	0.000000	0.000000	
0.759470	0.000000	0.000000	0.000000	-31.821894	11.486826	16.003382	61.165952	-3.653268	-1.703543	27.060342	13.595270	-6.736227	0.000000	0.000000	
0.761364	0.000000	0.000000	0.000000	-36.711076	13.320085	18.501869	59.429029	-3.843935	-0.866055	-70.371112	11.580028	95.350666	0.000000	0.000000	
0.763258	0.000000	0.000000	0.000000	-31.694089	10.892533	10.136482	57.617276	-2.884505	-2.742758	140.388025	3.377150	-140.028474	0.000000	0.000000	
0.765152	0.000000	0.000000	0.000000	-35.050132	12.274965	12.015297	57.326870	-2.232410	-1.381951	-142.961354	6.386134	148.590261	0.000000	0.000000	
0.767045	0.000000	0.000000	0.000000	-24.740770	8.437622	7.612066	60.896182	-2.213911	-3.660241	72.256885	17.830228	-74.277527	0.000000	0.000000	
0.768939	0.000000	0.000000	0.000000	-27.390801	10.227535	16.147120	65.397318	-2.526748	-0.677818	81.172467	40.548544	-82.762873	0.000000	0.000000	
0.770833	0.000000	0.000000	0.000000	-32.408238	12.932719	28.735859	68.630691	-5.467256	3.351645	83.491465	61.784244	-87.049762	0.000000	0.000000	
0.772727	0.000000	0.000000	0.000000	-31.553809	12.433265	25.653138	67.925680	-4.391891	2.575933	81.671050	56.219889	-85.586685	0.000000	0.000000	
0.774621	0.000000	0.000000	0.000000	-26.894186	9.915472	15.681538	64.713774	-3.294584	-1.653049	79.004889	36.746073	-81.676990	0.000000	0.000000	
0.776515	0.000000	0.000000	0.000000	-36.959148	13.080438	14.958458	57.218166	-3.286532	-1.486863	-131.322843	10.618898	138.718381	0.000000	0.000000	
0.778409	0.000000	0.000000	0.000000	-38.754742	13.854718	17.860803	57.193842	-4.258619	-1.530510	-126.312286	15.409028	134.036965	0.000000	0.000000	
0.780303	0.000000	0.000000	0.000000	-34.658038	14.025390	32.890821	69.115611	-6.347259	4.981429	78.490180	65.363190	-89.997677	0.000000	0.000000	
0.782197	0.000000	0.000000	0.000000	-32.889476	13.111918	27.830583	68.465417	-4.412113	3.858182	80.178389	59.886101	-90.723936	0.000000	0.000000	
0.784091	0.000000	0.000000	0.000000	-28.153828	10.618672	18.781361	65.788491	-3.779325	-0.618465	80.793546	42.818323	-87.655873	0.000000	0.000000	
0.785985	0.000000	0.000000	0.000000	-24.625213	8.459126	8.321101	61.372833	-2.374021	-3.633899	72.931292	20.072365	-77.368284	0.000000	0.000000	
0.787879	0.000000	0.000000	0.000000	-24.772299	8.668510	9.064100	62.393769	-1.764289	-2.891054	75.139910	24.900452	-111.481352	0.000000	0.000000	
0.789773	0.000000	0.000000	0.000000	-29.064017	11.042527	20.484687	65.982914	-4.296377	-0.263799	78.404429	43.660963	-114.403267	0.000000	0.000000	
0.791667	0.000000	0.000000	0.000000	-34.394889	13.797047	31.017451	68.510221	-5.736737	4.352070	74.906510	59.936786	-108.523140	0.000000	0.000000	
0.793561	0.000000	0.000000	0.000000	-31.739388	12.417045	24.418119	67.343539	-3.834757	2.382018	76.625035	51.516421	-110.908496	0.000000	0.000000	
0.795455	0.000000	0.000000	0.000000	-26.368250	9.591914	14.862565	64.030348	-3.755526	-2.476721	77.150186	33.121687	-114.377466	0.000000	0.000000	
0.797348	0.000000	0.000000	0.000000	-23.766766	7.977518	6.030295	60.552422	-1.961980	-3.962334	75.926069	16.842987	-122.591811	0.000000	0.000000	
0.799242	0.000000	0.000000	0.000000	-26.113562	9.543114	13.757586	64.464018	-2.506995	-1.770023	80.525796	35.568200	-117.705219	0.000000	0.000000	
0.801136	0.000000	0.000000	0.000000	-30.932473	12.103350	23.822290	67.588683	-3.735231	2.186267	81.678684	53.819972	-112.066810	0.000000	0.000000	
0.803030	0.000000	0.000000	0.000000	-32.982059	13.154075	28.364445	68.459544	-4.807794	3.763982	79.860661	59.896834	-109.141156	0.000000	0.000000	
0.804924	0.000000	0.000000	0.000000	-32.197882	12.737475	27.542925	68.020160	-5.361043	2.670310	79.985696	56.884444	-111.695700	0.000000	0.000000	
0.806818	0.000000	0.000000	0.000000	-25.104219	8.873929	11.016065	62.820473	-2.730466	-3.082289	75.740262	27.026267	-115.231276	0.000000	0.000000	
0.808712	0.000000	0.000000	0.000000	-28.479081	9.665322	7.968214	58.528524	-2.433919	-3.215845	84.108405	6.756441	-133.541896	0.000000	0.000000	
0.810606	0.000000	0.000000	0.000000	-40.416264	15.364475	24.405880	62.147182	-2.424452	3.200586	-43.244870	25.083805	43.452224	0.000000	0.000000	
0.812500	0.000000	0.000000	0.000000	-47.283015	18.686316	37.441450	63.366694	-5.256199	6.640378	-50.988116	45.290658	64.030184	0.000000	0.000000	
0.814394	0.000000	0.000000	0.000000	-51.322429	20.611220	49.742270	63.112018	-11.244098	6.479067	-54.267685	57.907522	25.283334	0.000000	0.000000	
0.816288	0.000000	0.000000	0.000000	-42.248786	16.181817	29.180438	62.106756	-4.860643	2.814372	-52.991645	29.939708	-29.580526	0.000000	0.000000	
0.818182	0.000000	0.000000	0.000000	-42.545572	15.500053	18.610110	57.314633	-1.697273	1.398665	-125.188574	27.328221	88.787037	0.000000	0.000000	
0.820076	0.000000	0.000000	0.000000	-46.604373	17.714146	27.706498	59.864621	-2.494773	4.177943	-99.485890	44.772261	104.096330	0.000000	0.000000	
0.821970	0.000000	0.000000	0.000000	-47.052837	18.621779	42.607476	63.275699	-9.813944	4.456524	-46.988575	44.493393	-13.355500	0.000000	0.000000	
0.823864	0.000000	0.000000	0.000000	-37.355663	13.932695	21.024826	61.571546	-2.923535	1.168409	-29.500899	17.634429	-40.915447	0.000000	0.000000	
0.825758	0.000000	0.000000	0.000000	-43.546155	16.592259	29.320513	61.138526	-5.002754	2.513137	-73.593615	33.606006	82.807155	0.000000	0.000000	
0.827652	0.000000	0.000000	0.000000	-48.954420	19.486979	39.596585	63.509478	-5.084925	7.937989	-52.340616	50.435026	69.196786	0.000000	0.000000	
0.829545	0.000000	0.000000	0.000000	-35.311009	13.383255	22.897383	63.668997	-3.772286	1.291414	23.388536	25.246694	-85.942648	0.000000	0.000000	
0.831439	0.000000	0.000000	0.000000	-28.203880	9.724687	8.818564	59.721357	-1.994089	-2.697038	60.836071	10.127177	-115.741826	0.000000	0.000000	
0.833333	0.000000	0.000000	0.000000	-34.595454	13.135498	22.508378	64.074110	-3.572320	1.345510	33.265437	27.670155	-96.815670	0.000000	0.000000	
0.835227	0.000000	0.000000	0.000000	-44.557380	17.934637	38.805688	65.904631	-5.646096	7.927974	1.825369	43.075223	-45.440196	0.000000	0.000000	
0.837121	0.000000	0.000000	0.000000	-44.230177	17.478382	36.381737	64.307738	-6.176926	5.517223	-23.812530	37.654687	39.946025	0.000000	0.000000	
